<svg xmlns="http://www.w3.org/2000/svg" width="128" height="128" viewBox="0 0 128 128">
  <defs><filter id="s" x="-20%" y="-20%" width="140%" height="140%"><feDropShadow dx="0" dy="6" stdDeviation="6" flood-color="#d8c7ad" flood-opacity=".35"/></filter></defs>
  <g filter="url(#s)">
    <path d="M23 27c3-9 12-15 22-15h35c10 0 18 4 23 12l10 14c5 7 5 17 0 24l-8 12c3 5 4 10 2 16l-3 11c-3 10-11 17-21 17H40c-14 0-25-11-25-25V42c0-6 3-11 8-15Z" fill="#fffdf8" stroke="#f3eee3" stroke-width="6" stroke-linejoin="round"/>
  </g>
  <rect x="27" y="34" width="74" height="47" rx="12" fill="#eef6ff" stroke="#88a6ca" stroke-width="3"/>
  <rect x="33" y="40" width="62" height="35" rx="8" fill="#fefcf7"/>
  <path d="M41 67l9-11 7 6 12-14 10 10" fill="none" stroke="#7db796" stroke-width="4" stroke-linecap="round" stroke-linejoin="round"/>
  <circle cx="84" cy="50" r="5" fill="#f7b06f"/>
  <rect x="36" y="84" width="25" height="17" rx="8" fill="#ffe8b7" stroke="#e0b766" stroke-width="3"/>
  <rect x="67" y="84" width="25" height="17" rx="8" fill="#f7d5dd" stroke="#d89cab" stroke-width="3"/>
  <path d="M40 27c8 0 12-10 20-10s11 10 19 10" fill="none" stroke="#f0bb73" stroke-width="4" stroke-linecap="round"/>
</svg>
